<svg width="161" height="41" viewBox="0 0 161 41" fill="none" xmlns="http://www.w3.org/2000/svg">
<path d="M59.5375 30V15.624H53.9455V13.08H68.2255V15.624H62.6335V30H59.5375ZM68.2739 30V20.976C68.2739 20.464 68.2579 19.944 68.2259 19.416C68.2099 18.888 68.1699 18.376 68.1059 17.88H71.0099L71.3459 21.192H70.8659C71.0259 20.392 71.2899 19.728 71.6579 19.2C72.0419 18.672 72.5059 18.28 73.0499 18.024C73.5939 17.768 74.1859 17.64 74.8259 17.64C75.1139 17.64 75.3459 17.656 75.5219 17.688C75.6979 17.704 75.8739 17.744 76.0499 17.808L76.0259 20.448C75.7219 20.32 75.4579 20.24 75.2339 20.208C75.0259 20.176 74.7619 20.16 74.4419 20.16C73.7539 20.16 73.1699 20.304 72.6899 20.592C72.2259 20.88 71.8739 21.28 71.6339 21.792C71.4099 22.304 71.2979 22.888 71.2979 23.544V30H68.2739ZM82.2826 30.24C81.2266 30.24 80.2986 29.992 79.4986 29.496C78.6986 28.984 78.0746 28.256 77.6266 27.312C77.1786 26.368 76.9546 25.24 76.9546 23.928C76.9546 22.616 77.1786 21.496 77.6266 20.568C78.0746 19.624 78.6986 18.904 79.4986 18.408C80.2986 17.896 81.2266 17.64 82.2826 17.64C83.3066 17.64 84.2026 17.896 84.9706 18.408C85.7546 18.904 86.2746 19.576 86.5306 20.424H86.2666L86.5306 17.88H89.4106C89.3626 18.376 89.3146 18.88 89.2666 19.392C89.2346 19.904 89.2186 20.408 89.2186 20.904V30H86.2426L86.2186 27.504H86.5066C86.2506 28.336 85.7306 29 84.9466 29.496C84.1626 29.992 83.2746 30.24 82.2826 30.24ZM83.1226 27.936C84.0666 27.936 84.8266 27.608 85.4026 26.952C85.9786 26.28 86.2666 25.272 86.2666 23.928C86.2666 22.584 85.9786 21.584 85.4026 20.928C84.8266 20.272 84.0666 19.944 83.1226 19.944C82.1786 19.944 81.4186 20.272 80.8426 20.928C80.2666 21.584 79.9786 22.584 79.9786 23.928C79.9786 25.272 80.2586 26.28 80.8186 26.952C81.3946 27.608 82.1626 27.936 83.1226 27.936ZM93.3014 30V20.136H90.9734V17.88H94.1414L93.3014 18.648V16.8C93.3014 15.296 93.6854 14.16 94.4534 13.392C95.2374 12.624 96.3814 12.24 97.8854 12.24C98.2374 12.24 98.6054 12.264 98.9894 12.312C99.3894 12.36 99.7334 12.448 100.021 12.576V14.928C99.8134 14.848 99.5654 14.784 99.2774 14.736C98.9894 14.688 98.7094 14.664 98.4374 14.664C98.0214 14.664 97.6454 14.744 97.3094 14.904C96.9894 15.064 96.7334 15.312 96.5414 15.648C96.3654 15.968 96.2774 16.4 96.2774 16.944V18.408L95.8454 17.88H99.4694V20.136H96.3014V30H93.3014ZM105.884 30.24C104.828 30.24 103.9 29.992 103.1 29.496C102.3 28.984 101.676 28.256 101.228 27.312C100.78 26.368 100.556 25.24 100.556 23.928C100.556 22.616 100.78 21.496 101.228 20.568C101.676 19.624 102.3 18.904 103.1 18.408C103.9 17.896 104.828 17.64 105.884 17.64C106.908 17.64 107.804 17.896 108.572 18.408C109.356 18.904 109.876 19.576 110.132 20.424H109.868L110.132 17.88H113.012C112.964 18.376 112.916 18.88 112.868 19.392C112.836 19.904 112.82 20.408 112.82 20.904V30H109.844L109.82 27.504H110.108C109.852 28.336 109.332 29 108.548 29.496C107.764 29.992 106.876 30.24 105.884 30.24ZM106.724 27.936C107.668 27.936 108.428 27.608 109.004 26.952C109.58 26.28 109.868 25.272 109.868 23.928C109.868 22.584 109.58 21.584 109.004 20.928C108.428 20.272 107.668 19.944 106.724 19.944C105.78 19.944 105.02 20.272 104.444 20.928C103.868 21.584 103.58 22.584 103.58 23.928C103.58 25.272 103.86 26.28 104.42 26.952C104.996 27.608 105.764 27.936 106.724 27.936ZM116.087 30V12.336H119.087V30H116.087ZM127.961 35.376C126.841 35.376 125.825 35.256 124.913 35.016C124.017 34.776 123.217 34.408 122.513 33.912L123.161 31.752C123.625 32.056 124.105 32.304 124.601 32.496C125.097 32.688 125.609 32.832 126.137 32.928C126.665 33.024 127.201 33.072 127.745 33.072C128.865 33.072 129.697 32.792 130.241 32.232C130.801 31.688 131.081 30.904 131.081 29.88V26.976H131.321C131.065 27.808 130.545 28.472 129.761 28.968C128.993 29.464 128.105 29.712 127.097 29.712C126.009 29.712 125.057 29.472 124.241 28.992C123.441 28.496 122.817 27.792 122.369 26.88C121.921 25.968 121.697 24.896 121.697 23.664C121.697 22.432 121.921 21.368 122.369 20.472C122.817 19.56 123.441 18.864 124.241 18.384C125.057 17.888 126.009 17.64 127.097 17.64C128.121 17.64 129.009 17.888 129.761 18.384C130.529 18.864 131.041 19.52 131.297 20.352L131.081 20.208L131.321 17.88H134.225C134.161 18.376 134.113 18.88 134.081 19.392C134.049 19.904 134.033 20.408 134.033 20.904V29.52C134.033 31.424 133.513 32.872 132.473 33.864C131.449 34.872 129.945 35.376 127.961 35.376ZM127.913 27.408C128.873 27.408 129.633 27.088 130.193 26.448C130.769 25.792 131.057 24.864 131.057 23.664C131.057 22.464 130.769 21.544 130.193 20.904C129.633 20.264 128.873 19.944 127.913 19.944C126.937 19.944 126.161 20.264 125.585 20.904C125.009 21.544 124.721 22.464 124.721 23.664C124.721 24.864 125.009 25.792 125.585 26.448C126.161 27.088 126.937 27.408 127.913 27.408ZM141.954 30.24C140.898 30.24 139.97 29.992 139.17 29.496C138.37 28.984 137.746 28.256 137.298 27.312C136.85 26.368 136.626 25.24 136.626 23.928C136.626 22.616 136.85 21.496 137.298 20.568C137.746 19.624 138.37 18.904 139.17 18.408C139.97 17.896 140.898 17.64 141.954 17.64C142.978 17.64 143.874 17.896 144.642 18.408C145.426 18.904 145.946 19.576 146.202 20.424H145.938L146.202 17.88H149.082C149.034 18.376 148.986 18.88 148.938 19.392C148.906 19.904 148.89 20.408 148.89 20.904V30H145.914L145.89 27.504H146.178C145.922 28.336 145.402 29 144.618 29.496C143.834 29.992 142.946 30.24 141.954 30.24ZM142.794 27.936C143.738 27.936 144.498 27.608 145.074 26.952C145.65 26.28 145.938 25.272 145.938 23.928C145.938 22.584 145.65 21.584 145.074 20.928C144.498 20.272 143.738 19.944 142.794 19.944C141.85 19.944 141.09 20.272 140.514 20.928C139.938 21.584 139.65 22.584 139.65 23.928C139.65 25.272 139.93 26.28 140.49 26.952C141.066 27.608 141.834 27.936 142.794 27.936ZM152.133 30V20.976C152.133 20.464 152.117 19.944 152.085 19.416C152.069 18.888 152.029 18.376 151.965 17.88H154.869L155.205 21.192H154.725C154.885 20.392 155.149 19.728 155.517 19.2C155.901 18.672 156.365 18.28 156.909 18.024C157.453 17.768 158.045 17.64 158.685 17.64C158.973 17.64 159.205 17.656 159.381 17.688C159.557 17.704 159.733 17.744 159.909 17.808L159.885 20.448C159.581 20.32 159.317 20.24 159.093 20.208C158.885 20.176 158.621 20.16 158.301 20.16C157.613 20.16 157.029 20.304 156.549 20.592C156.085 20.88 155.733 21.28 155.493 21.792C155.269 22.304 155.157 22.888 155.157 23.544V30H152.133Z" fill="white"/>
<ellipse cx="21.3732" cy="20.5" rx="20.3791" ry="20.5" fill="white"/>
<path d="M20.2614 31V15.426H14.2034V12.67H29.6734V15.426H23.6154V31H20.2614Z" fill="#5B9BF3"/>
</svg>
